<?xml version="1.0" encoding="utf-8"?><svg xmlns="http://www.w3.org/2000/svg" xmlns:xlink="http://www.w3.org/1999/xlink" width="1440" height="707" preserveAspectRatio="xMidYMid" viewBox="0 0 1440 707" style="z-index:1;margin-right:-2px;display:block;background-repeat-y:initial;background-repeat-x:initial;background-color:rgb(53, 51, 83);animation-play-state:paused" ><g transform="translate(720,353.5) scale(1,1) translate(-720,-353.5)" style="transform:matrix(1, 0, 0, 1, 0, 0);animation-play-state:paused" ><defs style="animation-play-state:paused" ><path id="path-i1ymn8izrz8-1" d="M-35 -35L35 -35L35 35L-35 35Z" fill="none" stroke="inherit" stroke-width="4.333333333333334" transform="scale(0.3)" style="transform:matrix(0.3, 0, 0, 0.3, 0, 0);animation-play-state:paused" ></path>

  
<path id="path-i1ymn8izrz8-2" d="M0 -37A37 37 0 0 1 0 37A37 37 0 0 1 0 -37" fill="none" stroke="inherit" stroke-width="4.333333333333334" transform="scale(0.3)" style="transform:matrix(0.3, 0, 0, 0.3, 0, 0);animation-play-state:paused" ></path>

  
<path id="path-i1ymn8izrz8-3" d="M0 -34.641L40 34.641L-40 34.641Z" fill="none" stroke="inherit" stroke-width="4.333333333333334" transform="scale(0.3)" style="transform:matrix(0.3, 0, 0, 0.3, 0, 0);animation-play-state:paused" ></path></defs>
<path id="path0" d="M 45.55147816621227 675.5785195572898
c 0 34.14483677738919 -8.35458772212714 9.807559499888384 -18.162147222015527 9.807559499888384
S 9.227183722181216 709.723356334679 9.227183722181216 675.5785195572898
s 8.35458772212714 -9.807559499888384 18.162147222015527 -9.807559499888384
S 45.55147816621227 641.4336827799007 45.55147816621227 675.5785195572898
z" fill="none" stroke="none" style="animation-play-state:paused" ></path>


<use xlink:href="#path-i1ymn8izrz8-3" x="0" y="0" stroke="#df1317" transform="translate(42.336544036865234 693.7053833007812)" style="animation-play-state:paused" ></use>
<path id="path1" d="M 87.36182488394007 158.69912965504855
c 0 36.99463741364742 -9.051879367169049 10.626119257111494 -19.67799862428054 10.626119257111494
S 48.005827635378985 195.69376706869596 48.005827635378985 158.69912965504855
s 9.051879367169049 -10.626119257111494 19.67799862428054 -10.626119257111494
S 87.36182488394007 121.70449224140114 87.36182488394007 158.69912965504855
z" fill="none" stroke="none" style="animation-play-state:paused" ></path>


<use xlink:href="#path-i1ymn8izrz8-2" x="0" y="0" stroke="#df1317" transform="translate(87.05816650390625 168.5312957763672)" style="animation-play-state:paused" ></use>
<path id="path2" d="M 105.98485219411684 369.2018851332842
c 0 28.574726247902095 -6.99168833725264 8.207634135035708 -15.199322472288348 8.207634135035708
S 75.58620724954015 397.7766113811863 75.58620724954015 369.2018851332842
s 6.99168833725264 -8.207634135035708 15.199322472288348 -8.207634135035708
S 105.98485219411684 340.6271588853821 105.98485219411684 369.2018851332842
z" fill="none" stroke="none" style="animation-play-state:paused" ></path>


<use xlink:href="#path-i1ymn8izrz8-2" x="0" y="0" stroke="#e4934b" transform="translate(97.22318267822266 380.6414489746094)" style="animation-play-state:paused" ></use>
<path id="path3" d="M 129.66562271616507 425.91891190317426
c 0 32.236763223532144 -7.887718661077013 9.25949581952519 -17.147214480602205 9.25949581952519
S 95.37119375496067 458.1556751267064 95.37119375496067 425.91891190317426
s 7.887718661077013 -9.25949581952519 17.147214480602205 -9.25949581952519
S 129.66562271616507 393.6821486796421 129.66562271616507 425.91891190317426
z" fill="none" stroke="none" style="animation-play-state:paused" ></path>


<use xlink:href="#path-i1ymn8izrz8-2" x="0" y="0" stroke="#e4934b" transform="translate(109.92626190185547 435.7319641113281)" style="animation-play-state:paused" ></use>
<path id="path4" d="M 166.39614340737546 128.34993701638385
c 0 51.63299404829474 -12.633604926710413 14.830753609616574 -27.464358536326987 14.830753609616574
S 111.4674263347215 179.98293106467858 111.4674263347215 128.34993701638385
s 12.633604926710413 -14.830753609616574 27.464358536326987 -14.830753609616574
S 166.39614340737546 76.71694296808911 166.39614340737546 128.34993701638385
z" fill="none" stroke="none" style="animation-play-state:paused" ></path>


<use xlink:href="#path-i1ymn8izrz8-3" x="0" y="0" stroke="#df1317" transform="translate(126.29754638671875 149.875)" style="animation-play-state:paused" ></use>
<path id="path5" d="M 181.8035651307465 279.8281668210176
c 0 43.16999713680726 -10.562871639857095 12.399892794614852 -22.962764434471946 12.399892794614852
S 135.8780362618026 322.99816395782483 135.8780362618026 279.8281668210176
s 10.562871639857095 -12.399892794614852 22.962764434471946 -12.399892794614852
S 181.8035651307465 236.65816968421032 181.8035651307465 279.8281668210176
z" fill="none" stroke="none" style="animation-play-state:paused" ></path>


<use xlink:href="#path-i1ymn8izrz8-3" x="0" y="0" stroke="#e4934b" transform="translate(181.671875 287.3396301269531)" style="animation-play-state:paused" ></use>
<path id="path6" d="M 218.12074493538267 415.66055734832656
c 0 32.13182124294738 -7.862041367955209 9.22935291020829 -17.0913942781635 9.22935291020829
S 183.93795637905566 447.792378591274 183.93795637905566 415.66055734832656
s 7.862041367955209 -9.22935291020829 17.0913942781635 -9.22935291020829
S 218.12074493538267 383.52873610537915 218.12074493538267 415.66055734832656
z" fill="none" stroke="none" style="animation-play-state:paused" ></path>


<use xlink:href="#path-i1ymn8izrz8-2" x="0" y="0" stroke="#e2bb8b" transform="translate(207.67921447753906 428.0361022949219)" style="animation-play-state:paused" ></use>
<path id="path7" d="M 238.31189955574683 177.6313949641858
c 0 60.07723188054203 -14.699748226090069 17.256226178453563 -31.955974404543632 17.256226178453563
S 174.39995074665956 237.70862684472783 174.39995074665956 177.6313949641858
s 14.699748226090069 -17.256226178453563 31.955974404543632 -17.256226178453563
S 238.31189955574683 117.55416308364377 238.31189955574683 177.6313949641858
z" fill="none" stroke="none" style="animation-play-state:paused" ></path>


<use xlink:href="#path-i1ymn8izrz8-2" x="0" y="0" stroke="#df1317" transform="translate(237.2045440673828 199.35650634765625)" style="animation-play-state:paused" ></use>
<path id="path8" d="M 282.8796155266014 213.44317412334965
c 0 59.523268927379966 -14.564204099252542 17.09710915999212 -31.66131325924466 17.09710915999212
S 219.55698900811208 272.9664430507296 219.55698900811208 213.44317412334965
s 14.564204099252542 -17.09710915999212 31.66131325924466 -17.09710915999212
S 282.8796155266014 153.91990519596968 282.8796155266014 213.44317412334965
z" fill="none" stroke="none" style="animation-play-state:paused" ></path>


<use xlink:href="#path-i1ymn8izrz8-3" x="0" y="0" stroke="#e2bb8b" transform="translate(270.8194885253906 242.5234375)" style="animation-play-state:paused" ></use>
<path id="path9" d="M 289.65298180725915 685.8327919280237
c 0 58.09186444148583 -14.213966831427383 16.685961062979974 -30.899927894407355 16.685961062979974
S 227.8531260184444 743.9246563695095 227.8531260184444 685.8327919280237
s 14.213966831427383 -16.685961062979974 30.899927894407355 -16.685961062979974
S 289.65298180725915 627.7409274865378 289.65298180725915 685.8327919280237
z" fill="none" stroke="none" style="animation-play-state:paused" ></path>


<use xlink:href="#path-i1ymn8izrz8-2" x="0" y="0" stroke="#df1317" transform="translate(265.7228698730469 704.6456298828125)" style="animation-play-state:paused" ></use>
<path id="path10" d="M 337.7763469398347 151.82475507693437
c 0 59.298967135306356 -14.50932174587283 17.03268204950289 -31.54200379537572 17.03268204950289
S 274.6923393490833 211.12372221224072 274.6923393490833 151.82475507693437
s 14.50932174587283 -17.03268204950289 31.54200379537572 -17.03268204950289
S 337.7763469398347 92.52578794162801 337.7763469398347 151.82475507693437
z" fill="none" stroke="none" style="animation-play-state:paused" ></path>


<use xlink:href="#path-i1ymn8izrz8-2" x="0" y="0" stroke="#e4934b" transform="translate(320.51953125 176.35244750976562)" style="animation-play-state:paused" ></use>
<path id="path11" d="M 338.80211666123614 112.32466412899274
c 0 27.909818622486466 -6.828998173587114 8.016650029863134 -14.845648203450247 8.016650029863134
S 309.11082025433564 140.2344827514792 309.11082025433564 112.32466412899274
s 6.828998173587114 -8.016650029863134 14.845648203450247 -8.016650029863134
S 338.80211666123614 84.41484550650627 338.80211666123614 112.32466412899274
z" fill="none" stroke="none" style="animation-play-state:paused" ></path>


<use xlink:href="#path-i1ymn8izrz8-1" x="0" y="0" stroke="#df1317" transform="translate(315.9713134765625 124.9620590209961)" style="animation-play-state:paused" ></use>
<path id="path12" d="M 381.6997056802935 269.67557828508
c 0 37.21771040839118 -9.106461057372309 10.69019341517619 -19.796654472548497 10.69019341517619
S 342.10639673519654 306.89328869347116 342.10639673519654 269.67557828508
s 9.106461057372309 -10.69019341517619 19.796654472548497 -10.69019341517619
S 381.6997056802935 232.45786787668882 381.6997056802935 269.67557828508
z" fill="none" stroke="none" style="animation-play-state:paused" ></path>


<use xlink:href="#path-i1ymn8izrz8-1" x="0" y="0" stroke="#e4934b" transform="translate(381.6969909667969 270.7136535644531)" style="animation-play-state:paused" ></use>
<path id="path13" d="M 410.58306241643214 140.7727897017797
c 0 63.752902677307006 -15.599114484872988 18.312003960503077 -33.91111844537606 18.312003960503077
S 342.76082552568 204.5256923790867 342.76082552568 140.7727897017797
s 15.599114484872988 -18.312003960503077 33.91111844537606 -18.312003960503077
S 410.58306241643214 77.01988702447268 410.58306241643214 140.7727897017797
z" fill="none" stroke="none" style="animation-play-state:paused" ></path>


<use xlink:href="#path-i1ymn8izrz8-2" x="0" y="0" stroke="#e2bb8b" transform="translate(368.8424377441406 161.52268981933594)" style="animation-play-state:paused" ></use>
<path id="path14" d="M 402.73765981863704 145.88555929623038
c 0 21.165177483010318 -5.17871363945997 6.079359489800836 -11.258073129260806 6.079359489800836
S 380.2215135601154 167.0507367792407 380.2215135601154 145.88555929623038
s 5.17871363945997 -6.079359489800836 11.258073129260806 -6.079359489800836
S 402.73765981863704 124.72038181322006 402.73765981863704 145.88555929623038
z" fill="none" stroke="none" style="animation-play-state:paused" ></path>


<use xlink:href="#path-i1ymn8izrz8-2" x="0" y="0" stroke="#df1317" transform="translate(402.7344055175781 146.76512145996094)" style="animation-play-state:paused" ></use>
<path id="path15" d="M 471.5176139532108 431.7185451412089
c 0 60.62634835078631 -14.834106511362606 17.413951122034366 -32.24805763339697 17.413951122034366
S 407.02149868641686 492.3448934919952 407.02149868641686 431.7185451412089
s 14.834106511362606 -17.413951122034366 32.24805763339697 -17.413951122034366
S 471.5176139532108 371.0921967904226 471.5176139532108 431.7185451412089
z" fill="none" stroke="none" style="animation-play-state:paused" ></path>


<use xlink:href="#path-i1ymn8izrz8-1" x="0" y="0" stroke="#df1317" transform="translate(408.72174072265625 456.8919372558594)" style="animation-play-state:paused" ></use>
<path id="path16" d="M 473.63032150694335 544.8925282750254
c 0 27.365931529536876 -6.695919416801575 7.860427141462719 -14.556346558264295 7.860427141462719
S 444.51762839041476 572.2584598045622 444.51762839041476 544.8925282750254
s 6.695919416801575 -7.860427141462719 14.556346558264295 -7.860427141462719
S 473.63032150694335 517.5265967454885 473.63032150694335 544.8925282750254
z" fill="none" stroke="none" style="animation-play-state:paused" ></path>


<use xlink:href="#path-i1ymn8izrz8-2" x="0" y="0" stroke="#df1317" transform="translate(473.1968078613281 554.2665405273438)" style="animation-play-state:paused" ></use>
<path id="path17" d="M 505.149996922172 115.68432558336244
c 0 46.58919893548907 -11.399484845917538 13.382003949555372 -24.78148879547291 13.382003949555372
S 455.5870193312262 162.2735245188515 455.5870193312262 115.68432558336244
s 11.399484845917538 -13.382003949555372 24.78148879547291 -13.382003949555372
S 505.149996922172 69.09512664787337 505.149996922172 115.68432558336244
z" fill="none" stroke="none" style="animation-play-state:paused" ></path>


<use xlink:href="#path-i1ymn8izrz8-3" x="0" y="0" stroke="#df1317" transform="translate(504.9447937011719 125.21507263183594)" style="animation-play-state:paused" ></use>
<path id="path18" d="M 516.1286523435191 686.6493384902002
c 0 26.982127160398576 -6.6020098371188 7.750185460965549 -14.35219529808435 7.750185460965549
S 487.42426174735044 713.6314656505988 487.42426174735044 686.6493384902002
s 6.6020098371188 -7.750185460965549 14.35219529808435 -7.750185460965549
S 516.1286523435191 659.6672113298016 516.1286523435191 686.6493384902002
z" fill="none" stroke="none" style="animation-play-state:paused" ></path>


<use xlink:href="#path-i1ymn8izrz8-1" x="0" y="0" stroke="#e4934b" transform="translate(505.3368835449219 695.5785522460938)" style="animation-play-state:paused" ></use>
<path id="path19" d="M 559.7502721628764 337.4041168979521
c 0 53.356723592965864 -13.05536853870441 15.325867415000832 -28.381235953705243 15.325867415000832
S 502.98780025546586 390.760840490918 502.98780025546586 337.4041168979521
s 13.05536853870441 -15.325867415000832 28.381235953705243 -15.325867415000832
S 559.7502721628764 284.04739330498626 559.7502721628764 337.4041168979521
z" fill="none" stroke="none" style="animation-play-state:paused" ></path>


<use xlink:href="#path-i1ymn8izrz8-1" x="0" y="0" stroke="#df1317" transform="translate(524.9270629882812 354.7064208984375)" style="animation-play-state:paused" ></use>
<path id="path20" d="M 590.6309588482527 658.2367436914257
c 0 60.47779933183343 -14.797759410980518 17.37128278680322 -32.16904219778374 17.37128278680322
S 526.2928744526853 718.7145430232591 526.2928744526853 658.2367436914257
s 14.797759410980518 -17.37128278680322 32.16904219778374 -17.37128278680322
S 590.6309588482527 597.7589443595922 590.6309588482527 658.2367436914257
z" fill="none" stroke="none" style="animation-play-state:paused" ></path>


<use xlink:href="#path-i1ymn8izrz8-3" x="0" y="0" stroke="#e4934b" transform="translate(580.8931274414062 689.5078125)" style="animation-play-state:paused" ></use>
<path id="path21" d="M 608.8502262825155 381.9991045515878
c 0 31.906970657405253 -7.807024735322561 9.164768167552573 -16.971792902875134 9.164768167552573
S 574.9066404767652 413.906075208993 574.9066404767652 381.9991045515878
s 7.807024735322561 -9.164768167552573 16.971792902875134 -9.164768167552573
S 608.8502262825155 350.09213389418255 608.8502262825155 381.9991045515878
z" fill="none" stroke="none" style="animation-play-state:paused" ></path>


<use xlink:href="#path-i1ymn8izrz8-3" x="0" y="0" stroke="#e4934b" transform="translate(594.2644653320312 391.640625)" style="animation-play-state:paused" ></use>
<path id="path22" d="M 643.2803588348993 534.1200947044591
c 0 64.34452228571838 -15.743872474165133 18.48193725228081 -34.225809726445945 18.48193725228081
S 574.8287393820074 598.4646169901775 574.8287393820074 534.1200947044591
s 15.743872474165133 -18.48193725228081 34.225809726445945 -18.48193725228081
S 643.2803588348993 469.77557241874075 643.2803588348993 534.1200947044591
z" fill="none" stroke="none" style="animation-play-state:paused" ></path>


<use xlink:href="#path-i1ymn8izrz8-3" x="0" y="0" stroke="#df1317" transform="translate(594.2869873046875 560.1090698242188)" style="animation-play-state:paused" ></use>
<path id="path23" d="M 663.9532362825572 393.6632315704953
c 0 25.992544423071905 -6.359877890751636 7.4659436108823565 -13.825821501633992 7.4659436108823565
S 636.3015932792892 419.6557759935672 636.3015932792892 393.6632315704953
s 6.359877890751636 -7.4659436108823565 13.825821501633992 -7.4659436108823565
S 663.9532362825572 367.67068714742345 663.9532362825572 393.6632315704953
z" fill="none" stroke="none" style="animation-play-state:paused" ></path>


<use xlink:href="#path-i1ymn8izrz8-2" x="0" y="0" stroke="#e2bb8b" transform="translate(663.5633544921875 402.390625)" style="animation-play-state:paused" ></use>
<path id="path24" d="M 690.8466378368048 484.5972096750251
c 0 28.993549513091796 -7.094166370224587 8.327934434611473 -15.422100804836061 8.327934434611473
S 660.0024362271326 513.5907591881169 660.0024362271326 484.5972096750251
s 7.094166370224587 -8.327934434611473 15.422100804836061 -8.327934434611473
S 690.8466378368048 455.6036601619333 690.8466378368048 484.5972096750251
z" fill="none" stroke="none" style="animation-play-state:paused" ></path>


<use xlink:href="#path-i1ymn8izrz8-3" x="0" y="0" stroke="#e2bb8b" transform="translate(671.71923828125 494.1188049316406)" style="animation-play-state:paused" ></use>
<path id="path25" d="M 718.292829365885 158.40660996379017
c 0 22.24516845044347 -5.442966748512763 6.389569661297592 -11.832536409810356 6.389569661297592
S 694.6277565462643 180.65177841423363 694.6277565462643 158.40660996379017
s 5.442966748512763 -6.389569661297592 11.832536409810356 -6.389569661297592
S 718.292829365885 136.16144151334672 718.292829365885 158.40660996379017
z" fill="none" stroke="none" style="animation-play-state:paused" ></path>


<use xlink:href="#path-i1ymn8izrz8-1" x="0" y="0" stroke="#e2bb8b" transform="translate(696.3811645507812 170.03712463378906)" style="animation-play-state:paused" ></use>
<path id="path26" d="M 723.0985684115136 560.974853841733
c 0 27.858268236372226 -6.816384781240012 8.001843004064362 -14.818227785304375 8.001843004064362
S 693.4621128409048 588.8331220781051 693.4621128409048 560.974853841733
s 6.816384781240012 -8.001843004064362 14.818227785304375 -8.001843004064362
S 723.0985684115136 533.1165856053608 723.0985684115136 560.974853841733
z" fill="none" stroke="none" style="animation-play-state:paused" ></path>


<use xlink:href="#path-i1ymn8izrz8-2" x="0" y="0" stroke="#e2bb8b" transform="translate(719.9218139648438 575.8325805664062)" style="animation-play-state:paused" ></use>
<path id="path27" d="M 755.5942165877383 479.8958733776451
c 0 39.94298193514368 -9.773282813918133 11.47298417286042 -21.24626698677855 11.47298417286042
S 713.1016826141812 519.8388553127888 713.1016826141812 479.8958733776451
s 9.773282813918133 -11.47298417286042 21.24626698677855 -11.47298417286042
S 755.5942165877383 439.9528914425014 755.5942165877383 479.8958733776451
z" fill="none" stroke="none" style="animation-play-state:paused" ></path>


<use xlink:href="#path-i1ymn8izrz8-1" x="0" y="0" stroke="#e2bb8b" transform="translate(737.4243774414062 492.0003967285156)" style="animation-play-state:paused" ></use>
<path id="path28" d="M 809.7232538377866 48.518103124545895
c 0 59.436893380135146 -14.543069656841576 17.072299162379245 -31.61536881922082 17.072299162379245
S 746.4925161993449 107.95499650468105 746.4925161993449 48.518103124545895
s 14.543069656841576 -17.072299162379245 31.61536881922082 -17.072299162379245
S 809.7232538377866 -10.91879025558925 809.7232538377866 48.518103124545895
z" fill="none" stroke="none" style="animation-play-state:paused" ></path>


<use xlink:href="#path-i1ymn8izrz8-2" x="0" y="0" stroke="#e4934b" transform="translate(798.3418579101562 78.05672454833984)" style="animation-play-state:paused" ></use>
<path id="path29" d="M 821.8569924009049 543.328530069926
c 0 55.23745472623663 -13.515547433015342 15.86607742136584 -29.381624854381183 15.86607742136584
S 763.0937426921427 598.5659847961626 763.0937426921427 543.328530069926
s 13.515547433015342 -15.86607742136584 29.381624854381183 -15.86607742136584
S 821.8569924009049 488.0910753436894 821.8569924009049 543.328530069926
z" fill="none" stroke="none" style="animation-play-state:paused" ></path>


<use xlink:href="#path-i1ymn8izrz8-3" x="0" y="0" stroke="#e2bb8b" transform="translate(821.60205078125 554.849609375)" style="animation-play-state:paused" ></use>
<path id="path30" d="M 850.6016906361891 230.72204613366534
c 0 36.60076547096314 -8.955506445022895 10.512985826766007 -19.468492271788904 10.512985826766007
S 811.6647060926113 267.3228116046285 811.6647060926113 230.72204613366534
s 8.955506445022895 -10.512985826766007 19.468492271788904 -10.512985826766007
S 850.6016906361891 194.1212806627022 850.6016906361891 230.72204613366534
z" fill="none" stroke="none" style="animation-play-state:paused" ></path>


<use xlink:href="#path-i1ymn8izrz8-3" x="0" y="0" stroke="#df1317" transform="translate(837.6903076171875 244.02003479003906)" style="animation-play-state:paused" ></use>
<path id="path31" d="M 877.8421797026946 658.3825163066809
c 0 31.042646435794794 -7.595541149183831 8.91650482730276 -16.51204597648659 8.91650482730276
S 844.8180877497215 689.4251627424758 844.8180877497215 658.3825163066809
s 7.595541149183831 -8.91650482730276 16.51204597648659 -8.91650482730276
S 877.8421797026946 627.3398698708861 877.8421797026946 658.3825163066809
z" fill="none" stroke="none" style="animation-play-state:paused" ></path>


<use xlink:href="#path-i1ymn8izrz8-3" x="0" y="0" stroke="#e4934b" transform="translate(858.9652099609375 667.779541015625)" style="animation-play-state:paused" ></use>
<path id="path32" d="M 885.4982120552659 49.2909427225036
c 0 21.02887432599916 -5.145362866999793 6.0402085829997585 -11.185571449999552 6.0402085829997585
S 863.1270691552668 70.31981704850276 863.1270691552668 49.2909427225036
s 5.145362866999793 -6.0402085829997585 11.185571449999552 -6.0402085829997585
S 885.4982120552659 28.262068396504443 885.4982120552659 49.2909427225036
z" fill="none" stroke="none" style="animation-play-state:paused" ></path>


<use xlink:href="#path-i1ymn8izrz8-3" x="0" y="0" stroke="#e4934b" transform="translate(874.1583251953125 55.33449172973633)" style="animation-play-state:paused" ></use>
<path id="path33" d="M 902.309007393379 37.624315060660955
c 0 19.217071802552244 -4.702049483603208 5.519797219882028 -10.221846703485236 5.519797219882028
S 881.8653139864086 56.8413868632132 881.8653139864086 37.624315060660955
s 4.702049483603208 -5.519797219882028 10.221846703485236 -5.519797219882028
S 902.309007393379 18.40724325810871 902.309007393379 37.624315060660955
z" fill="none" stroke="none" style="animation-play-state:paused" ></path>


<use xlink:href="#path-i1ymn8izrz8-3" x="0" y="0" stroke="#df1317" transform="translate(902.1773071289062 42.36418533325195)" style="animation-play-state:paused" ></use>
<path id="path34" d="M 948.375618877848 67.1754365317962
c 0 22.634259935117726 -5.53816998412455 6.501329981363602 -12.039499965488151 6.501329981363602
S 924.2966189468716 89.80969646691392 924.2966189468716 67.1754365317962
s 5.53816998412455 -6.501329981363602 12.039499965488151 -6.501329981363602
S 948.375618877848 44.54117659667847 948.375618877848 67.1754365317962
z" fill="none" stroke="none" style="animation-play-state:paused" ></path>


<use xlink:href="#path-i1ymn8izrz8-2" x="0" y="0" stroke="#e2bb8b" transform="translate(946.6900634765625 78.92842864990234)" style="animation-play-state:paused" ></use>
<path id="path35" d="M 971.4063998019315 138.12953981746207
c 0 47.20830843208111 -11.550969084445377 13.559833273044575 -25.110802357489952 13.559833273044575
S 921.1847950869515 185.33784824954319 921.1847950869515 138.12953981746207
s 11.550969084445377 -13.559833273044575 25.110802357489952 -13.559833273044575
S 971.4063998019315 90.92123138538096 971.4063998019315 138.12953981746207
z" fill="none" stroke="none" style="animation-play-state:paused" ></path>


<use xlink:href="#path-i1ymn8izrz8-1" x="0" y="0" stroke="#e2bb8b" transform="translate(939.0852661132812 154.38609313964844)" style="animation-play-state:paused" ></use>
<path id="path36" d="M 1004.5844641496227 476.29361785948316
c 0 30.8611949442514 -7.551143443806193 8.864385781859445 -16.41552922566564 8.864385781859445
S 971.7534056982914 507.15481280373456 971.7534056982914 476.29361785948316
s 7.551143443806193 -8.864385781859445 16.41552922566564 -8.864385781859445
S 1004.5844641496227 445.43242291523177 1004.5844641496227 476.29361785948316
z" fill="none" stroke="none" style="animation-play-state:paused" ></path>


<use xlink:href="#path-i1ymn8izrz8-3" x="0" y="0" stroke="#df1317" transform="translate(1004.580078125 477.5103454589844)" style="animation-play-state:paused" ></use>
<path id="path37" d="M 1023.7656632439488 310.43479570152317
c 0 36.85558139866971 -9.01785502307876 10.58617763578811 -19.604032658866867 10.58617763578811
S 984.557597926215 347.29037710019287 984.557597926215 310.43479570152317
s 9.01785502307876 -10.58617763578811 19.604032658866867 -10.58617763578811
S 1023.7656632439488 273.5792143028535 1023.7656632439488 310.43479570152317
z" fill="none" stroke="none" style="animation-play-state:paused" ></path>


<use xlink:href="#path-i1ymn8izrz8-3" x="0" y="0" stroke="#df1317" transform="translate(1009.5540161132812 322.9682312011719)" style="animation-play-state:paused" ></use>
<path id="path38" d="M 1046.282651519202 179.52503464795512
c 0 29.46358503650248 -7.209175062122946 8.462944638144329 -15.672119700267276 8.462944638144329
S 1014.9384121186674 208.9886196844576 1014.9384121186674 179.52503464795512
s 7.209175062122946 -8.462944638144329 15.672119700267276 -8.462944638144329
S 1046.282651519202 150.06144961145264 1046.282651519202 179.52503464795512
z" fill="none" stroke="none" style="animation-play-state:paused" ></path>


<use xlink:href="#path-i1ymn8izrz8-1" x="0" y="0" stroke="#df1317" transform="translate(1027.4822998046875 188.8458251953125)" style="animation-play-state:paused" ></use>
<path id="path39" d="M 1084.4175355861846 324.61426450657433
c 0 31.602578788256764 -7.732545873722398 9.077336460456731 -16.80988233417913 9.077336460456731
S 1050.7977709178265 356.2168432948311 1050.7977709178265 324.61426450657433
s 7.732545873722398 -9.077336460456731 16.80988233417913 -9.077336460456731
S 1084.4175355861846 293.01168571831755 1084.4175355861846 324.61426450657433
z" fill="none" stroke="none" style="animation-play-state:paused" ></path>


<use xlink:href="#path-i1ymn8izrz8-2" x="0" y="0" stroke="#df1317" transform="translate(1084.3802490234375 328.1622619628906)" style="animation-play-state:paused" ></use>
<path id="path40" d="M 1115.2193366644244 333.5299916411729
c 0 65.70056907518308 -16.07567115669373 18.871440053510035 -34.947111210203765 18.871440053510035
S 1045.325114244017 399.23056071635597 1045.325114244017 333.5299916411729
s 16.07567115669373 -18.871440053510035 34.947111210203765 -18.871440053510035
S 1115.2193366644244 267.82942256598983 1115.2193366644244 333.5299916411729
z" fill="none" stroke="none" style="animation-play-state:paused" ></path>


<use xlink:href="#path-i1ymn8izrz8-2" x="0" y="0" stroke="#df1317" transform="translate(1080.0767822265625 352.4031982421875)" style="animation-play-state:paused" ></use>
<path id="path41" d="M 1114.8651018745597 126.59296506713903
c 0 18.85087463487817 -4.612448048959552 5.414612927039475 -10.027060975999028 5.414612927039475
S 1094.8109799225615 145.44383970201721 1094.8109799225615 126.59296506713903
s 4.612448048959552 -5.414612927039475 10.027060975999028 -5.414612927039475
S 1114.8651018745597 107.74209043226087 1114.8651018745597 126.59296506713903
z" fill="none" stroke="none" style="animation-play-state:paused" ></path>


<use xlink:href="#path-i1ymn8izrz8-3" x="0" y="0" stroke="#e2bb8b" transform="translate(1095.6036376953125 135.35682678222656)" style="animation-play-state:paused" ></use>
<path id="path42" d="M 1172.9732143216747 107.96942366843646
c 0 62.65307834004039 -15.33000853000988 17.9960969700116 -33.326105500021484 17.9960969700116
S 1106.321003321632 170.62250200847686 1106.321003321632 107.96942366843646
s 15.33000853000988 -17.9960969700116 33.326105500021484 -17.9960969700116
S 1172.9732143216747 45.316345328396075 1172.9732143216747 107.96942366843646
z" fill="none" stroke="none" style="animation-play-state:paused" ></path>


<use xlink:href="#path-i1ymn8izrz8-3" x="0" y="0" stroke="#e4934b" transform="translate(1165.887451171875 141.38729858398438)" style="animation-play-state:paused" ></use>
<path id="path43" d="M 1177.6644641846692 148.97174206869465
c 0 39.97201028848285 -9.780385496118143 11.481322104138691 -21.261707600256834 11.481322104138691
S 1135.1410489841555 188.94375235717752 1135.1410489841555 148.97174206869465
s 9.780385496118143 -11.481322104138691 21.261707600256834 -11.481322104138691
S 1177.6644641846692 108.9997317802118 1177.6644641846692 148.97174206869465
z" fill="none" stroke="none" style="animation-play-state:paused" ></path>


<use xlink:href="#path-i1ymn8izrz8-2" x="0" y="0" stroke="#e4934b" transform="translate(1162.1507568359375 162.49891662597656)" style="animation-play-state:paused" ></use>
<path id="path44" d="M 1233.830073800786 117.75563629020084
c 0 62.21261454244353 -15.222235473151075 17.869580772829526 -33.0918162459806 17.869580772829526
S 1167.6464413088247 179.96825083264437 1167.6464413088247 117.75563629020084
s 15.222235473151075 -17.869580772829526 33.0918162459806 -17.869580772829526
S 1233.830073800786 55.54302174775731 1233.830073800786 117.75563629020084
z" fill="none" stroke="none" style="animation-play-state:paused" ></path>


<use xlink:href="#path-i1ymn8izrz8-1" x="0" y="0" stroke="#df1317" transform="translate(1212.099365234375 140.52264404296875)" style="animation-play-state:paused" ></use>
<path id="path45" d="M 1250.549547602773 176.10516137794562
c 0 57.66285193718957 -14.10899568675915 16.56273406706509 -30.671729753824238 16.56273406706509
S 1189.2060880951246 233.7680133151352 1189.2060880951246 176.10516137794562
s 14.10899568675915 -16.56273406706509 30.671729753824238 -16.56273406706509
S 1250.549547602773 118.44230944075605 1250.549547602773 176.10516137794562
z" fill="none" stroke="none" style="animation-play-state:paused" ></path>


<use xlink:href="#path-i1ymn8izrz8-1" x="0" y="0" stroke="#e2bb8b" transform="translate(1202.016845703125 203.36959838867188)" style="animation-play-state:paused" ></use>
<path id="path46" d="M 1264.6798337552589 632.6547096075952
c 0 39.16078921960435 -9.581895234584042 11.248311797120397 -20.83020703170444 11.248311797120397
S 1223.0194196918499 671.8154988271996 1223.0194196918499 632.6547096075952
s 9.581895234584042 -11.248311797120397 20.83020703170444 -11.248311797120397
S 1264.6798337552589 593.4939203879909 1264.6798337552589 632.6547096075952
z" fill="none" stroke="none" style="animation-play-state:paused" ></path>


<use xlink:href="#path-i1ymn8izrz8-1" x="0" y="0" stroke="#e2bb8b" transform="translate(1243.85400390625 643.903076171875)" style="animation-play-state:paused" ></use>
<path id="path47" d="M 1293.4672662935677 571.518238945188
c 0 34.88675783441189 -8.536121597781632 10.020664484352352 -18.556786082133982 10.020664484352352
S 1256.3536941292996 606.4049967796 1256.3536941292996 571.518238945188
s 8.536121597781632 -10.020664484352352 18.556786082133982 -10.020664484352352
S 1293.4672662935677 536.6314811107761 1293.4672662935677 571.518238945188
z" fill="none" stroke="none" style="animation-play-state:paused" ></path>


<use xlink:href="#path-i1ymn8izrz8-1" x="0" y="0" stroke="#e2bb8b" transform="translate(1283.1541748046875 585.8109130859375)" style="animation-play-state:paused" ></use>
<path id="path48" d="M 1331.8299301707118 345.882210908134
c 0 64.07157064171862 -15.677086433612 18.40353624815322 -34.08062268176522 18.40353624815322
S 1263.6686848071815 409.95378154985264 1263.6686848071815 345.882210908134
s 15.677086433612 -18.40353624815322 34.08062268176522 -18.40353624815322
S 1331.8299301707118 281.8106402664154 1331.8299301707118 345.882210908134
z" fill="none" stroke="none" style="animation-play-state:paused" ></path>


<use xlink:href="#path-i1ymn8izrz8-3" x="0" y="0" stroke="#e2bb8b" transform="translate(1331.8057861328125 350.05548095703125)" style="animation-play-state:paused" ></use>
<path id="path49" d="M 1324.9713743632697 669.8974542215569
c 0 33.36398978863128 -8.163529416367227 9.583273662691964 -17.74680307905919 9.583273662691964
S 1289.4777682051513 703.2614440101883 1289.4777682051513 669.8974542215569
s 8.163529416367227 -9.583273662691964 17.74680307905919 -9.583273662691964
S 1324.9713743632697 636.5334644329256 1324.9713743632697 669.8974542215569
z" fill="none" stroke="none" style="animation-play-state:paused" ></path>


<use xlink:href="#path-i1ymn8izrz8-3" x="0" y="0" stroke="#df1317" transform="translate(1315.7874755859375 684.1522216796875)" style="animation-play-state:paused" ></use>
<path id="path50" d="M 1369.9392796081556 620.4284715167099
c 0 27.713895462856 -6.781059528145617 7.9603742286926815 -14.741433756838298 7.9603742286926815
S 1340.4564120944792 648.142366979566 1340.4564120944792 620.4284715167099
s 6.781059528145617 -7.9603742286926815 14.741433756838298 -7.9603742286926815
S 1369.9392796081556 592.7145760538539 1369.9392796081556 620.4284715167099
z" fill="none" stroke="none" style="animation-play-state:paused" ></path>


<use xlink:href="#path-i1ymn8izrz8-2" x="0" y="0" stroke="#e2bb8b" transform="translate(1348.2703857421875 632.1082153320312)" style="animation-play-state:paused" ></use>
<path id="path51" d="M 1400.3825358050751 228.3865679111536
c 0 45.89436621522164 -11.229472584575506 13.182424338414725 -24.41189692299023 13.182424338414725
S 1351.5587419590945 274.28093412637526 1351.5587419590945 228.3865679111536
s 11.229472584575506 -13.182424338414725 24.41189692299023 -13.182424338414725
S 1400.3825358050751 182.49220169593195 1400.3825358050751 228.3865679111536
z" fill="none" stroke="none" style="animation-play-state:paused" ></path>


<use xlink:href="#path-i1ymn8izrz8-1" x="0" y="0" stroke="#e4934b" transform="translate(1370.86328125 243.0287322998047)" style="animation-play-state:paused" ></use>
<path id="path52" d="M 1415.2406469314883 322.7136074242581
c 0 52.202873026071025 -12.7730433999961 14.994442252169337 -27.767485652165437 14.994442252169337
S 1359.7056756271572 374.9164804503291 1359.7056756271572 322.7136074242581
s 12.7730433999961 -14.994442252169337 27.767485652165437 -14.994442252169337
S 1415.2406469314883 270.5107343981871 1415.2406469314883 322.7136074242581
z" fill="none" stroke="none" style="animation-play-state:paused" ></path>


<use xlink:href="#path-i1ymn8izrz8-2" x="0" y="0" stroke="#e4934b" transform="translate(1414.6861572265625 338.0865478515625)" style="animation-play-state:paused" ></use></g></svg>